<?xml version="1.0" encoding="utf-8"?>
<!-- Generator: Adobe Illustrator 21.0.0, SVG Export Plug-In . SVG Version: 6.00 Build 0)  -->
<svg version="1.1" id="圖層_1" xmlns="http://www.w3.org/2000/svg" xmlns:xlink="http://www.w3.org/1999/xlink" x="0px" y="0px"
	 viewBox="0 0 14.2 14.2" style="enable-background:new 0 0 14.2 14.2;" xml:space="preserve">
<style type="text/css">
	.st0{fill:none;stroke:#ED722C;stroke-width:0.5712;stroke-linecap:round;stroke-linejoin:round;}
</style>
<title>資產 40</title>
<g id="圖層_2">
	<g id="圖層_1-2">
		<path id="_路徑_" class="st0" d="M13.2,13.5c0,0-4.9-0.4-6.9-2.1C4.2,9.6,1.2,7.5,0.7,1.1c0.5-0.3,1.2-0.5,1.8-0.4
			C3.3,0.7,4,1,4.6,1.3c0,0-0.1,1.3-0.1,1.8s0.1,2.7,0.1,2.7C5.4,7,6.2,8,7.1,9.1c0.8,0.4,1.6,0.6,2.5,0.6c0.6,0,0.5-0.4,0.5-0.4
			l2.9,0.3l0.5,1L13.2,13.5z"/>
	</g>
</g>
</svg>
